HIERARCHY
ROOT Hips
{
	OFFSET 0.00000 0.00000 0.00000
	CHANNELS 6 Xposition Yposition Zposition Zrotation Yrotation Xrotation 
	JOINT LHipJoint
	{
		OFFSET 0 0 0
		CHANNELS 3 Zrotation Yrotation Xrotation
		JOINT LeftUpLeg
		{
			OFFSET 1.29432 -1.88279 0.59910
			CHANNELS 3 Zrotation Yrotation Xrotation
			JOINT LeftLeg
			{
				OFFSET 2.63039 -7.22694 0.00000
				CHANNELS 3 Zrotation Yrotation Xrotation
				JOINT LeftFoot
				{
					OFFSET 2.70674 -7.43672 0.00000
					CHANNELS 3 Zrotation Yrotation Xrotation
					JOINT LeftToeBase
					{
						OFFSET 0.15066 -0.41394 2.09027
						CHANNELS 3 Zrotation Yrotation Xrotation
						End Site
						{
							OFFSET 0.00000 -0.00000 1.07518
						}
					}
				}
			}
		}
	}
	JOINT RHipJoint
	{
		OFFSET 0 0 0
		CHANNELS 3 Zrotation Yrotation Xrotation
		JOINT RightUpLeg
		{
			OFFSET -1.37068 -1.88279 0.59910
			CHANNELS 3 Zrotation Yrotation Xrotation
			JOINT RightLeg
			{
				OFFSET -2.57023 -7.06166 0.00000
				CHANNELS 3 Zrotation Yrotation Xrotation
				JOINT RightFoot
				{
					OFFSET -2.76461 -7.59570 0.00000
					CHANNELS 3 Zrotation Yrotation Xrotation
					JOINT RightToeBase
					{
						OFFSET -0.24175 -0.64785 2.19719
						CHANNELS 3 Zrotation Yrotation Xrotation
						End Site
						{
							OFFSET -0.00000 -0.00000 1.14803
						}
					}
				}
			}
		}
	}
	JOINT LowerBack
	{
		OFFSET 0 0 0
		CHANNELS 3 Zrotation Yrotation Xrotation
		JOINT Spine
		{
			OFFSET -0.03138 2.03983 -0.23106
			CHANNELS 3 Zrotation Yrotation Xrotation
			JOINT Spine1
			{
				OFFSET -0.00325 2.06238 -0.06878
				CHANNELS 3 Zrotation Yrotation Xrotation
				JOINT Neck
				{
					OFFSET 0 0 0
					CHANNELS 3 Zrotation Yrotation Xrotation
					JOINT Neck1
					{
						OFFSET -0.00002 1.75318 0.18090
						CHANNELS 3 Zrotation Yrotation Xrotation
						JOINT Head
						{
							OFFSET 0.08806 1.75856 -0.25387
							CHANNELS 3 Zrotation Yrotation Xrotation
							End Site
							{
								OFFSET 0.02554 1.78597 -0.10684
							}
						}
					}
				}
				JOINT LeftShoulder
				{
					OFFSET 0 0 0
					CHANNELS 3 Zrotation Yrotation Xrotation
					JOINT LeftArm
					{
						OFFSET 3.09657 1.33597 -0.04414
						CHANNELS 3 Zrotation Yrotation Xrotation
						JOINT LeftForeArm
						{
							OFFSET 5.34298 -0.00000 -0.00000
							CHANNELS 3 Zrotation Yrotation Xrotation
							JOINT LeftHand
							{
								OFFSET 3.67262 -0.00000 -0.00000
								CHANNELS 3 Zrotation Yrotation Xrotation
								JOINT LeftFingerBase
								{
									OFFSET 0 0 0
									CHANNELS 3 Zrotation Yrotation Xrotation
									JOINT LeftHandIndex1
									{
										OFFSET 0.59930 -0.00000 -0.00000
										CHANNELS 3 Zrotation Yrotation Xrotation
										End Site
										{
											OFFSET 0.48317 -0.00000 -0.00000
										}
									}
								}
								JOINT LThumb
								{
									OFFSET 0 0 0
									CHANNELS 3 Zrotation Yrotation Xrotation
									End Site
									{
										OFFSET 0.49055 -0.00000 0.49055
									}
								}
							}
						}
					}
				}
				JOINT RightShoulder
				{
					OFFSET 0 0 0
					CHANNELS 3 Zrotation Yrotation Xrotation
					JOINT RightArm
					{
						OFFSET -3.16460 1.32273 -0.23382
						CHANNELS 3 Zrotation Yrotation Xrotation
						JOINT RightForeArm
						{
							OFFSET -5.54967 -0.01834 0.03348
							CHANNELS 3 Zrotation Yrotation Xrotation
							JOINT RightHand
							{
								OFFSET -3.69401 -0.00000 0.00000
								CHANNELS 3 Zrotation Yrotation Xrotation
								JOINT RightFingerBase
								{
									OFFSET 0 0 0
									CHANNELS 3 Zrotation Yrotation Xrotation
									JOINT RightHandIndex1
									{
										OFFSET -0.63811 -0.00000 0.00000
										CHANNELS 3 Zrotation Yrotation Xrotation
										End Site
										{
											OFFSET -0.51446 -0.00000 0.00000
										}
									}
								}
								JOINT RThumb
								{
									OFFSET 0 0 0
									CHANNELS 3 Zrotation Yrotation Xrotation
									End Site
									{
										OFFSET -0.52232 -0.00000 0.52232
									}
								}
							}
						}
					}
				}
			}
		}
	}
}
MOTION
Frames: 9
Frame Time: 0.0714286
0.00 0.00 0.00 0 0 0 0 0 0 -21 0 0 0 0 0 0 0 0 0 0 0 0 0 0 21 0 0 0 0 0 0 0 0 0 0 0 0 0 0 0 0 0 0 0 0 0 0 -16 0 0 21 0 0 11 0 0 0 -8 0 0 0 0 0 0 0 0 0 0 0 0 0 0 0 0 0 0 0 0 8 0 0 0 0 0 0 0 0 0 0 0 0 0 0 0 0 0
0.00 0.00 0.00 49.1083 -88.6331 -40.1359 0.0000 0.0000 0.0000 -9.3894 5.3448 -54.5806 19.6441 19.9970 88.9594 1.4423 -21.2293 -24.4753 0.5967 -4.9453 -13.7527 0.0000 0.0000 0.0000 7.0060 5.6643 -53.3722 -19.2553 -19.9867 87.8221 -2.5986 14.1192 -29.2573 -1.3545 7.3672 -20.8079 -2.3593 -0.3105 18.7189 -0.8296 -1.1412 3.6979 0.7354 -0.6064 -6.4641 -5.7964 -6.0741 -12.1758 12.1594 -8.4941 6.2234 4.0294 -3.7031 4.6489 -0.0000 -0.0000 0.0000 -77.2335 4.1299 2.6733 23.1005 -34.1986 -7.1947 -0.0000 -0.0000 15.0081 12.0079 22.6998 4.6924 -7.1250 0.0000 -0.0000 -17.3627 52.2969 -3.1974 -0.0000 -0.0000 0.0000 75.8349 -5.0812 -0.3773 -24.4355 35.6214 -7.9588 0.0000 0.0000 15.2601 -31.1388 26.4048 -15.0389 7.1250 -0.0000 -0.0000 -0.7010 0.1359 -0.7027
0.00 0.00 0.00 74.7069 -88.9017 -66.8008 0.0000 0.0000 0.0000 -6.6511 6.9893 -62.0166 24.9412 19.4043 104.5863 1.2639 -24.7595 -25.0042 1.1325 -6.7590 -19.0032 0.0000 0.0000 0.0000 2.7278 6.7079 -61.3401 -24.5266 -19.5015 103.3413 -2.5515 16.7326 -29.3791 -2.1562 9.1840 -26.3727 -3.1938 -0.2314 21.9849 -0.4752 -1.3603 4.2294 1.7034 -0.7073 -7.5878 -6.1536 -6.5650 -11.6338 12.9211 -8.9616 3.6888 4.3102 -4.0119 3.8908 0.0000 -0.0000 0.0000 -74.5675 5.1254 2.6267 24.1569 -35.3297 -7.7971 -0.0000 -0.0000 14.0641 13.4550 22.2873 5.1846 -7.1250 0.0000 -0.0000 -15.7669 52.1455 -2.8314 0.0000 -0.0000 0.0000 72.8010 -4.1827 -3.9354 -25.0922 36.2981 -8.3444 0.0000 0.0000 14.7409 -29.0079 29.3644 -15.2110 7.1250 -0.0000 -0.0000 1.0697 2.7707 1.1203
0.00 0.00 0.00 98.2160 -88.4019 -91.5134 0.0000 0.0000 0.0000 -3.8713 12.1494 -68.7232 29.2318 17.8198 117.9734 -0.4466 -32.5046 -20.7813 0.8480 -5.8734 -16.4176 0.0000 0.0000 0.0000 -1.8107 1.0075 -69.6282 -28.9567 -17.9562 117.0779 -1.6935 24.8843 -27.3166 -1.9518 8.7649 -25.0625 -4.1758 -0.0715 24.2041 -0.5281 -1.5509 4.7965 2.3062 -0.8025 -8.0870 -6.8911 -7.2362 -11.2132 14.4669 -9.8034 2.3826 4.8522 -4.4481 3.6408 -0.0000 -0.0000 0.0000 -72.1378 5.7781 1.9218 25.5813 -36.7922 -8.6356 -0.0000 -0.0000 13.8719 12.0291 21.6983 4.5046 -7.1250 0.0000 -0.0000 -16.8752 51.3363 -2.6987 -0.0000 -0.0000 0.0000 69.7383 -2.8663 -5.7868 -25.5548 36.7657 -8.6198 0.0000 0.0000 13.1036 -29.9891 28.3393 -15.3200 7.1250 -0.0000 -0.0000 0.3181 1.9303 0.3287
0.00 0.00 0.00 88.9604 -89.2382 -84.2111 0.0000 0.0000 0.0000 0.9218 23.2521 -75.9228 33.1813 15.1773 131.8148 -2.6577 -41.1143 -18.2153 0.9060 -6.0656 -16.9748 0.0000 0.0000 0.0000 -4.6928 -12.7668 -77.9098 -32.8490 -15.4577 130.5571 -0.7638 34.4378 -27.9654 -2.4452 9.7376 -28.1312 -3.6864 -0.1800 27.2401 -0.4262 -1.7650 5.2809 2.2796 -0.9283 -9.0961 -7.5792 -8.3782 -10.0102 16.2959 -11.2935 0.6927 5.4438 -5.2607 3.2680 0.0000 -0.0000 0.0000 -70.1644 6.0823 0.0500 26.1149 -37.3220 -8.9572 -0.0000 -0.0000 14.4623 12.9775 22.4548 5.0304 -7.1250 0.0000 -0.0000 -16.3075 52.2264 -2.9656 0.0000 -0.0000 0.0000 68.8590 -3.7390 -7.3103 -28.1151 39.2220 -10.1964 0.0000 0.0000 12.1748 -30.0332 28.5056 -15.4245 7.1250 -0.0000 -0.0000 0.3228 2.1201 0.3345
0.00 0.00 0.00 118.7760 -89.3258 -118.1090 0.0000 0.0000 0.0000 7.4133 48.7429 -81.9630 36.2922 11.7610 145.1083 -7.2752 -53.1262 -15.7909 1.2298 -7.0331 -19.8134 0.0000 0.0000 0.0000 -10.5933 -35.9614 -85.3172 -36.0397 -12.1074 143.8871 0.7921 46.7334 -30.9800 -3.2530 11.0938 -32.5967 -4.2686 0.1135 30.8608 -0.4601 -1.8752 6.2600 2.7063 -1.0263 -9.7503 -9.0951 -9.5927 -9.9262 17.7827 -12.9709 1.3053 5.9629 -6.0341 3.8562 -0.0000 0.0000 0.0000 -68.3070 5.5739 0.5504 24.9499 -36.1527 -8.2603 -0.0000 -0.0000 14.3551 16.0647 22.8589 6.3829 -7.1250 0.0000 -0.0000 -13.4619 53.1645 -2.7430 -0.0000 0.0000 0.0000 68.5888 -2.0176 -7.8739 -27.6822 38.8220 -9.9238 0.0000 0.0000 11.9722 -30.5798 27.9601 -15.4858 7.1250 -0.0000 -0.0000 -0.0938 1.6769 -0.0965
0.00 0.00 0.00 88.1529 -88.2055 -93.1451 0.0000 0.0000 0.0000 36.4941 76.4374 -64.1056 37.9569 8.9552 154.3447 -12.9456 -64.9732 -19.0717 2.1129 -9.0974 -26.1005 0.0000 0.0000 0.0000 -29.4740 -67.5102 -81.6333 -37.8002 -9.2705 153.3548 2.2665 61.7004 -40.0622 -3.1742 10.9719 -32.1852 -5.6843 0.6195 34.9518 -0.7373 -2.1842 6.5024 3.1209 -1.2189 -10.1893 -9.6631 -10.4205 -8.7585 18.6694 -14.0135 -0.0585 6.2803 -6.6496 3.5172 -0.0000 0.0000 0.0000 -68.4189 4.1974 -0.2326 23.6394 -34.7806 -7.4999 -0.0000 -0.0000 15.5654 17.9732 20.8492 6.5861 -7.1250 0.0000 -0.0000 -10.7641 51.4860 -1.7365 -0.0000 0.0000 0.0000 70.3562 -2.1920 -7.1476 -28.4702 39.5455 -10.4217 0.0000 0.0000 13.5129 -29.8243 27.1812 -14.6747 7.1250 -0.0000 -0.0000 0.2095 0.6419 0.2119
0.00 0.00 0.00 61.1674 -88.1857 -68.2320 0.0000 0.0000 0.0000 77.3415 80.5442 -29.7271 38.3828 8.0186 157.2296 -16.7506 -69.4865 -18.9332 2.1777 -9.2267 -26.5071 0.0000 0.0000 0.0000 -55.7562 -77.2651 -60.7626 -38.2990 -8.2133 156.6361 -4.9542 59.8835 -55.7522 -4.6353 12.9609 -39.2223 -5.3431 0.3830 35.7135 -0.6754 -2.4421 6.8403 3.1138 -1.3781 -10.0897 -10.4015 -10.9328 -8.0582 19.4671 -14.6387 -0.9053 6.6174 -7.0176 3.3694 0.0000 0.0000 0.0000 -68.8218 4.1578 0.4383 24.0739 -35.2423 -7.7492 -0.0000 -0.0000 15.6586 15.7701 21.4081 5.8853 -7.1250 0.0000 -0.0000 -13.1351 51.6743 -2.1905 0.0000 0.0000 0.0000 70.4760 -2.0070 -6.4810 -27.6749 38.8152 -9.9192 0.0000 0.0000 13.5108 -30.3523 25.6380 -14.2178 7.1250 -0.0000 -0.0000 -0.3663 -0.8990 -0.3605
0.00 0.00 0.00 61.7434 -87.0155 -71.9613 0.0000 0.0000 0.0000 109.1873 75.6878 -5.5579 38.6416 7.3774 159.1615 -26.1837 -78.3085 -20.4566 3.4275 -11.3569 -33.4932 0.0000 0.0000 0.0000 -89.0239 -75.8571 -39.1375 -38.6989 -7.2263 159.6123 -11.6588 59.7881 -71.1777 -6.1633 14.5847 -45.6336 -6.5239 0.4786 36.1205 -1.1750 -2.8863 6.9036 3.3735 -1.5736 -10.0950 -11.0745 -12.6885 -4.5863 21.0757 -16.8833 -4.3689 7.2311 -8.4573 2.3433 0.0000 -0.0000 0.0000 -70.7368 3.8114 0.1333 23.9353 -35.0958 -7.6693 -0.0000 -0.0000 16.2313 17.0622 21.9560 6.5463 -7.1250 0.0000 -0.0000 -12.0898 52.4431 -2.2415 0.0000 -0.0000 0.0000 72.8705 -1.1327 -5.4438 -25.0725 36.2780 -8.3328 0.0000 0.0000 15.5640 -30.2044 31.9610 -17.1261 7.1250 -0.0000 -0.0000 0.8917 5.8433 0.9780
